<svg xmlns="http://www.w3.org/2000/svg" viewBox="0 0 32 32">
  <rect width="32" height="32" rx="7" fill="#07060c"/>
  <path
    fill="#f472b6"
    opacity=".38"
    d="M16 2.6C8.6 10.8 4.8 14.8 4.8 20c0 4.6 3.8 7.6 8.4 5.8-.5 2.4-2.4 4.4-4.8 4.8h19.2c-2.4-.4-4.3-2.4-4.8-4.8 4.6 1.8 8.4-1.2 8.4-5.8 0-5.2-3.8-9.2-11.2-17.4z"
  />
  <path
    fill="#ff4ec8"
    d="M16 4.8C9.8 11.8 6.6 15.2 6.6 19.4c0 3.6 2.9 6 6.6 4.6-.4 1.9-1.9 3.5-3.8 3.8h16.2c-1.9-.3-3.4-1.9-3.8-3.8 3.7 1.4 6.6-1 6.6-4.6 0-4.2-3.2-7.6-9.4-14.6z"
  />
  <path
    fill="none"
    stroke="#ffe6f7"
    stroke-linejoin="round"
    stroke-width="1.15"
    d="M16 4.8C9.8 11.8 6.6 15.2 6.6 19.4c0 3.6 2.9 6 6.6 4.6-.4 1.9-1.9 3.5-3.8 3.8h16.2c-1.9-.3-3.4-1.9-3.8-3.8 3.7 1.4 6.6-1 6.6-4.6 0-4.2-3.2-7.6-9.4-14.6z"
  />
</svg>
